<mxfile host="app.diagrams.net" modified="2024-03-29T16:57:37.666Z" agent="Mozilla/5.0 (Windows NT 10.0; Win64; x64) AppleWebKit/537.36 (KHTML, like Gecko) Chrome/123.0.0.0 Safari/537.36" etag="MFXmzSfcxIQIRTHk3jtc" version="24.2.1" type="device">
  <diagram name="Page-1" id="hnrDlO42oGH2LPDClqRX">
    <mxGraphModel dx="2261" dy="1953" grid="1" gridSize="10" guides="1" tooltips="1" connect="1" arrows="1" fold="1" page="1" pageScale="1" pageWidth="827" pageHeight="1169" math="0" shadow="0">
      <root>
        <mxCell id="0" />
        <mxCell id="1" parent="0" />
        <mxCell id="O5B_OSYQv-SM_PPcyJsz-1" value="Používateľ" style="shape=umlActor;verticalLabelPosition=bottom;verticalAlign=top;html=1;outlineConnect=0;" vertex="1" parent="1">
          <mxGeometry x="-40" y="290" width="30" height="60" as="geometry" />
        </mxCell>
        <mxCell id="O5B_OSYQv-SM_PPcyJsz-3" value="Pridanie AAS&amp;nbsp;" style="ellipse;whiteSpace=wrap;html=1;" vertex="1" parent="1">
          <mxGeometry x="304" y="230" width="120" height="80" as="geometry" />
        </mxCell>
        <mxCell id="O5B_OSYQv-SM_PPcyJsz-4" value="Zobrazenie dostupných OPC UA serverov" style="ellipse;whiteSpace=wrap;html=1;" vertex="1" parent="1">
          <mxGeometry x="304" y="430" width="120" height="80" as="geometry" />
        </mxCell>
        <mxCell id="O5B_OSYQv-SM_PPcyJsz-5" value="Vymazanie OPC UA servera" style="ellipse;whiteSpace=wrap;html=1;" vertex="1" parent="1">
          <mxGeometry x="470" y="540" width="120" height="80" as="geometry" />
        </mxCell>
        <mxCell id="O5B_OSYQv-SM_PPcyJsz-6" value="Vypnutie OPC UA servera" style="ellipse;whiteSpace=wrap;html=1;" vertex="1" parent="1">
          <mxGeometry x="304" y="585" width="120" height="80" as="geometry" />
        </mxCell>
        <mxCell id="O5B_OSYQv-SM_PPcyJsz-7" value="Spustenie OPC UA servera" style="ellipse;whiteSpace=wrap;html=1;" vertex="1" parent="1">
          <mxGeometry x="140" y="540" width="120" height="80" as="geometry" />
        </mxCell>
        <mxCell id="O5B_OSYQv-SM_PPcyJsz-8" value="Zobrazenie dostupných AAS" style="ellipse;whiteSpace=wrap;html=1;" vertex="1" parent="1">
          <mxGeometry x="304" y="330" width="120" height="80" as="geometry" />
        </mxCell>
        <mxCell id="O5B_OSYQv-SM_PPcyJsz-9" value="Vymazanie AAS" style="ellipse;whiteSpace=wrap;html=1;" vertex="1" parent="1">
          <mxGeometry x="530" y="330" width="120" height="80" as="geometry" />
        </mxCell>
        <mxCell id="O5B_OSYQv-SM_PPcyJsz-10" value="" style="endArrow=none;html=1;rounded=0;entryX=0;entryY=0.5;entryDx=0;entryDy=0;" edge="1" parent="1" source="O5B_OSYQv-SM_PPcyJsz-1" target="O5B_OSYQv-SM_PPcyJsz-4">
          <mxGeometry width="50" height="50" relative="1" as="geometry">
            <mxPoint x="350" y="510" as="sourcePoint" />
            <mxPoint x="400" y="460" as="targetPoint" />
          </mxGeometry>
        </mxCell>
        <mxCell id="O5B_OSYQv-SM_PPcyJsz-11" value="&amp;lt;&amp;lt;extend&amp;gt;&amp;gt;" style="endArrow=open;html=1;rounded=0;exitX=1;exitY=0;exitDx=0;exitDy=0;dashed=1;endFill=0;entryX=0;entryY=1;entryDx=0;entryDy=0;" edge="1" parent="1" source="O5B_OSYQv-SM_PPcyJsz-7" target="O5B_OSYQv-SM_PPcyJsz-4">
          <mxGeometry width="50" height="50" relative="1" as="geometry">
            <mxPoint x="350" y="510" as="sourcePoint" />
            <mxPoint x="310" y="540" as="targetPoint" />
          </mxGeometry>
        </mxCell>
        <mxCell id="O5B_OSYQv-SM_PPcyJsz-12" value="&amp;lt;&amp;lt;extend&amp;gt;&amp;gt;" style="endArrow=open;html=1;rounded=0;exitX=0.5;exitY=0;exitDx=0;exitDy=0;entryX=0.5;entryY=1;entryDx=0;entryDy=0;dashed=1;endFill=0;" edge="1" parent="1" source="O5B_OSYQv-SM_PPcyJsz-6" target="O5B_OSYQv-SM_PPcyJsz-4">
          <mxGeometry width="50" height="50" relative="1" as="geometry">
            <mxPoint x="252" y="562" as="sourcePoint" />
            <mxPoint x="334" y="513" as="targetPoint" />
          </mxGeometry>
        </mxCell>
        <mxCell id="O5B_OSYQv-SM_PPcyJsz-13" value="&amp;lt;&amp;lt;extend&amp;gt;&amp;gt;" style="endArrow=open;html=1;rounded=0;exitX=0;exitY=0;exitDx=0;exitDy=0;entryX=1;entryY=1;entryDx=0;entryDy=0;dashed=1;endFill=0;" edge="1" parent="1" source="O5B_OSYQv-SM_PPcyJsz-5" target="O5B_OSYQv-SM_PPcyJsz-4">
          <mxGeometry width="50" height="50" relative="1" as="geometry">
            <mxPoint x="374" y="595" as="sourcePoint" />
            <mxPoint x="374" y="520" as="targetPoint" />
          </mxGeometry>
        </mxCell>
        <mxCell id="O5B_OSYQv-SM_PPcyJsz-17" value="" style="endArrow=none;html=1;rounded=0;entryX=0;entryY=0.5;entryDx=0;entryDy=0;" edge="1" parent="1" source="O5B_OSYQv-SM_PPcyJsz-1" target="O5B_OSYQv-SM_PPcyJsz-8">
          <mxGeometry width="50" height="50" relative="1" as="geometry">
            <mxPoint x="310" y="410" as="sourcePoint" />
            <mxPoint x="360" y="360" as="targetPoint" />
          </mxGeometry>
        </mxCell>
        <mxCell id="O5B_OSYQv-SM_PPcyJsz-18" value="" style="endArrow=none;html=1;rounded=0;entryX=0;entryY=0.5;entryDx=0;entryDy=0;" edge="1" parent="1" source="O5B_OSYQv-SM_PPcyJsz-1" target="O5B_OSYQv-SM_PPcyJsz-3">
          <mxGeometry width="50" height="50" relative="1" as="geometry">
            <mxPoint x="180" y="330" as="sourcePoint" />
            <mxPoint x="314" y="380" as="targetPoint" />
          </mxGeometry>
        </mxCell>
        <mxCell id="O5B_OSYQv-SM_PPcyJsz-19" value="Zobrazenie informácii o AAS" style="ellipse;whiteSpace=wrap;html=1;" vertex="1" parent="1">
          <mxGeometry x="304" y="120" width="120" height="80" as="geometry" />
        </mxCell>
        <mxCell id="O5B_OSYQv-SM_PPcyJsz-20" value="Detail" style="ellipse;whiteSpace=wrap;html=1;" vertex="1" parent="1">
          <mxGeometry x="530" y="180" width="120" height="80" as="geometry" />
        </mxCell>
        <mxCell id="O5B_OSYQv-SM_PPcyJsz-21" value="Submodel" style="ellipse;whiteSpace=wrap;html=1;" vertex="1" parent="1">
          <mxGeometry x="530" y="50" width="120" height="80" as="geometry" />
        </mxCell>
        <mxCell id="O5B_OSYQv-SM_PPcyJsz-22" value="" style="endArrow=block;html=1;rounded=0;exitX=0;exitY=0.5;exitDx=0;exitDy=0;entryX=1;entryY=0;entryDx=0;entryDy=0;endFill=0;" edge="1" parent="1" source="O5B_OSYQv-SM_PPcyJsz-21" target="O5B_OSYQv-SM_PPcyJsz-19">
          <mxGeometry width="50" height="50" relative="1" as="geometry">
            <mxPoint x="330" y="350" as="sourcePoint" />
            <mxPoint x="380" y="300" as="targetPoint" />
          </mxGeometry>
        </mxCell>
        <mxCell id="O5B_OSYQv-SM_PPcyJsz-23" value="" style="endArrow=block;html=1;rounded=0;exitX=0;exitY=0.5;exitDx=0;exitDy=0;entryX=1;entryY=1;entryDx=0;entryDy=0;endFill=0;" edge="1" parent="1" source="O5B_OSYQv-SM_PPcyJsz-20" target="O5B_OSYQv-SM_PPcyJsz-19">
          <mxGeometry width="50" height="50" relative="1" as="geometry">
            <mxPoint x="490" y="100" as="sourcePoint" />
            <mxPoint x="416" y="142" as="targetPoint" />
          </mxGeometry>
        </mxCell>
        <mxCell id="O5B_OSYQv-SM_PPcyJsz-24" value="&amp;lt;&amp;lt;extend&amp;gt;&amp;gt;" style="endArrow=open;html=1;rounded=0;exitX=0;exitY=0.5;exitDx=0;exitDy=0;entryX=1;entryY=0.5;entryDx=0;entryDy=0;dashed=1;endFill=0;" edge="1" parent="1" source="O5B_OSYQv-SM_PPcyJsz-9" target="O5B_OSYQv-SM_PPcyJsz-8">
          <mxGeometry width="50" height="50" relative="1" as="geometry">
            <mxPoint x="498" y="562" as="sourcePoint" />
            <mxPoint x="416" y="508" as="targetPoint" />
          </mxGeometry>
        </mxCell>
        <mxCell id="O5B_OSYQv-SM_PPcyJsz-25" value="" style="endArrow=none;html=1;rounded=0;entryX=0;entryY=0.5;entryDx=0;entryDy=0;" edge="1" parent="1" source="O5B_OSYQv-SM_PPcyJsz-1" target="O5B_OSYQv-SM_PPcyJsz-19">
          <mxGeometry width="50" height="50" relative="1" as="geometry">
            <mxPoint x="350" y="370" as="sourcePoint" />
            <mxPoint x="400" y="320" as="targetPoint" />
          </mxGeometry>
        </mxCell>
        <mxCell id="O5B_OSYQv-SM_PPcyJsz-26" value="" style="endArrow=none;html=1;rounded=0;entryX=0.5;entryY=1;entryDx=0;entryDy=0;" edge="1" parent="1" source="O5B_OSYQv-SM_PPcyJsz-1" target="O5B_OSYQv-SM_PPcyJsz-27">
          <mxGeometry width="50" height="50" relative="1" as="geometry">
            <mxPoint x="128" y="241" as="sourcePoint" />
            <mxPoint x="272" y="150" as="targetPoint" />
          </mxGeometry>
        </mxCell>
        <mxCell id="O5B_OSYQv-SM_PPcyJsz-27" value="Zobrazenie informácii o OPC UA serveri" style="ellipse;whiteSpace=wrap;html=1;" vertex="1" parent="1">
          <mxGeometry x="150" y="10" width="120" height="80" as="geometry" />
        </mxCell>
        <mxCell id="O5B_OSYQv-SM_PPcyJsz-28" value="Stiahnutie a pridanie OPC UA servera" style="ellipse;whiteSpace=wrap;html=1;" vertex="1" parent="1">
          <mxGeometry x="304" y="10" width="120" height="80" as="geometry" />
        </mxCell>
        <mxCell id="O5B_OSYQv-SM_PPcyJsz-29" value="" style="endArrow=none;html=1;rounded=0;entryX=0;entryY=1;entryDx=0;entryDy=0;" edge="1" parent="1" source="O5B_OSYQv-SM_PPcyJsz-1" target="O5B_OSYQv-SM_PPcyJsz-28">
          <mxGeometry width="50" height="50" relative="1" as="geometry">
            <mxPoint x="120" y="330" as="sourcePoint" />
            <mxPoint x="170" y="280" as="targetPoint" />
          </mxGeometry>
        </mxCell>
        <mxCell id="O5B_OSYQv-SM_PPcyJsz-32" value="Webová aplikácia" style="shape=umlFrame;whiteSpace=wrap;html=1;pointerEvents=0;width=90;height=50;" vertex="1" parent="1">
          <mxGeometry x="50" y="-20" width="660" height="720" as="geometry" />
        </mxCell>
      </root>
    </mxGraphModel>
  </diagram>
</mxfile>
